# Blender v2.83.20 OBJ File: 'stones.blend'
# www.blender.org
mtllib stone_3.mtl
o Stone_3_Cube.001
v -0.400260 -0.569803 4.185942
v -0.298623 0.177017 2.652844
v -0.532670 -0.580221 1.804398
v -0.226460 0.220112 3.950795
v 0.546347 -0.569803 4.185942
v 0.755167 -0.515657 3.231668
v 0.649191 -0.580221 1.804398
v 0.073043 -0.569803 4.185942
v -0.808056 -0.834838 2.600439
v 0.289445 0.678274 3.950795
v 0.390892 0.652944 3.287428
v 0.344855 0.377112 2.654974
v 0.031493 0.459347 3.950795
v -0.518657 0.401980 3.302069
vt 0.125000 0.750000
vt 0.125000 0.750000
vt 0.125000 0.625000
vt 0.250000 0.750000
vt 0.250000 0.750000
vt 0.375000 0.625000
vt 0.375000 0.500000
vt 0.375000 0.500000
vt 0.125000 0.625000
vt 0.125000 0.500000
vt 0.125000 0.500000
vt 0.375000 0.625000
vt 0.375000 0.750000
vt 0.375000 0.750000
vn -0.8272 0.3196 0.4622
vn -0.1956 0.2109 0.9577
vn 0.9251 0.3700 -0.0854
vn -0.8020 0.4255 -0.4192
vn -0.9679 0.0942 0.2332
vn 0.0000 0.2853 0.9584
vn -0.0759 0.7003 -0.7098
vn -0.6053 0.6527 0.4556
vn -0.2606 0.8867 -0.3819
vn -0.0583 0.1946 0.9792
vn -0.3717 0.9258 0.0688
vn 0.0000 -0.9984 -0.0566
vn 0.1320 -0.9884 -0.0744
vn 0.9329 0.3003 -0.1989
vn -0.8784 0.4505 -0.1598
vn 0.1252 -0.9875 0.0955
vn 0.9481 0.2575 0.1864
usemtl Material
s off
f 1/1/1 4/2/1 14/3/1
f 8/4/2 13/5/2 4/2/2
f 6/6/3 7/7/3 12/8/3
f 9/9/4 14/3/4 2/10/4
f 1/1/5 14/3/5 9/9/5
f 8/4/6 4/2/6 1/1/6
f 2/10/7 12/8/7 7/7/7 3/11/7
f 14/3/8 4/2/8 13/5/8
f 12/8/9 2/10/9 14/3/9 11/12/9
f 13/5/10 8/4/10 5/13/10 10/14/10
f 13/5/11 10/14/11 11/12/11 14/3/11
f 8/4/12 6/6/12 5/13/12
f 6/6/13 9/9/13 3/11/13 7/7/13
f 6/6/14 12/8/14 11/12/14
f 9/9/15 2/10/15 3/11/15
f 1/1/16 9/9/16 6/6/16 8/4/16
f 10/14/17 5/13/17 6/6/17 11/12/17
